<svg width="20" height="20" viewBox="0 0 20 20" fill="none" xmlns="http://www.w3.org/2000/svg">
<path fill-rule="evenodd" clip-rule="evenodd" d="M2.25 16.1C1.00736 16.1 0 15.0926 0 13.85V2.25C0 1.00736 1.00736 0 2.25 0H8.25C9.49264 0 10.5 1.00736 10.5 2.25L10.5 13.85C10.5 15.0926 9.49264 16.1 8.25 16.1H2.25ZM1.5 13.85C1.5 14.2642 1.83579 14.6 2.25 14.6H8.25C8.66422 14.6 9 14.2642 9 13.85L9 2.25C9 1.83579 8.66421 1.5 8.25 1.5L2.25 1.5C1.83579 1.5 1.5 1.83579 1.5 2.25L1.5 13.85Z" fill="currentColor"/>
<path d="M12.5498 14.8002C12.1356 14.8002 11.7998 14.4644 11.7998 14.0502L11.7998 2.0502C11.7998 1.63598 12.1356 1.3002 12.5498 1.3002C12.964 1.3002 13.2998 1.63598 13.2998 2.0502L13.2998 14.0502C13.2998 14.4644 12.964 14.8002 12.5498 14.8002Z" fill="currentColor"/>
<path d="M14.5996 13.3837C14.5996 13.7979 14.9354 14.1337 15.3496 14.1337C15.7638 14.1337 16.0996 13.7979 16.0996 13.3837V2.71703C16.0996 2.30281 15.7638 1.96703 15.3496 1.96703C14.9354 1.96703 14.5996 2.30281 14.5996 2.71703L14.5996 13.3837Z" fill="currentColor"/>
</svg>
