<svg width="20" height="20" viewBox="0 0 20 20" fill="none" xmlns="http://www.w3.org/2000/svg">
<path d="M18.3574 11.0002C18.3574 6.38469 14.6158 2.64307 10.0002 2.64307C5.38469 2.64307 1.64307 6.38469 1.64307 11.0002" stroke="currentColor" stroke-width="1.28571" stroke-linecap="round" stroke-linejoin="round"/>
<path d="M1.64314 10.9999C1.64314 12.6855 2.14216 14.2546 3.00054 15.5674M18.3574 10.9999C18.3574 12.6855 17.8584 14.2546 17 15.5674" stroke="currentColor" stroke-width="1.28571" stroke-linecap="round" stroke-linejoin="round"/>
<path d="M11.0912 9.81855C10.3381 9.06539 9.11699 9.06539 8.36383 9.81855C7.61068 10.5717 7.61068 11.7928 8.36383 12.546C9.11699 13.2991 10.3381 13.2991 11.0912 12.546C11.8444 11.7928 11.8444 10.5717 11.0912 9.81855Z" stroke="currentColor" stroke-width="1.28571" stroke-linecap="round" stroke-linejoin="round"/>
<path d="M11.0913 9.81836L12.9096 8.00008" stroke="currentColor" stroke-width="1.28571" stroke-linecap="round" stroke-linejoin="round"/>
</svg>
