<svg width="20" height="20" viewBox="0 0 20 20" fill="none" xmlns="http://www.w3.org/2000/svg">
<path fill-rule="evenodd" clip-rule="evenodd" d="M5.57171 10.3251L6.02599 12.0766C6.04241 12.1399 5.99461 12.2017 5.92919 12.2017H4.11975H3.93947C3.63927 12.2017 3.4928 12.4185 3.50036 12.5996L3.50166 12.6309V12.6621C3.50166 12.9153 3.70888 13.1225 3.962 13.1225H7.77635C7.83158 13.1225 7.87635 13.1672 7.87635 13.2225L7.87635 14.5225C7.87635 14.5777 7.83158 14.6225 7.77635 14.6225H3.962C2.88045 14.6225 2.00166 13.7437 2.00166 12.6621C1.97345 11.9857 2.3066 11.3886 2.83018 11.0362C3.14385 10.825 3.52586 10.7017 3.93947 10.7017H3.99051C4.05593 10.7017 4.10371 10.6399 4.08873 10.5763C3.98647 10.1414 3.93126 9.67535 3.94672 9.20171C3.9517 9.04879 3.96406 8.89508 3.98458 8.74137C4.27756 6.26266 6.30548 4.30236 8.78412 4.09957C11.2819 3.89888 13.4708 5.44197 14.2363 7.63662C14.2505 7.67726 14.2887 7.70518 14.3316 7.70101C14.3527 7.69895 14.3737 7.69632 14.3948 7.6937C14.4399 7.68808 14.485 7.68246 14.53 7.68246C16.4454 7.68246 18 9.23728 18 11.1525C18 11.9853 17.7061 12.7499 17.2164 13.3482C17.1879 13.383 17.1392 13.3933 17.0985 13.3742L15.8659 12.7953C15.7978 12.7633 15.7878 12.6698 15.8438 12.6196C16.2464 12.2588 16.5 11.7349 16.5 11.1525C16.5 10.0829 15.6447 9.21053 14.5816 9.18312C14.5767 9.183 14.5718 9.18325 14.5669 9.18385C14.5442 9.18667 14.5068 9.19117 14.4669 9.1949C14.415 9.19976 14.3433 9.20493 14.2596 9.20493H13.2506C13.2075 9.20493 13.1693 9.17739 13.1557 9.13656L12.8366 8.17926C12.3041 6.5818 10.718 5.44952 8.9053 5.59466C7.14191 5.73949 5.68371 7.14497 5.47421 8.91744L5.47288 8.92866L5.47139 8.93985C5.41101 9.39217 5.45392 9.871 5.57171 10.3251Z" fill="currentColor"/>
<path d="M15.0407 13.6065C15.3805 13.7977 15.3805 14.287 15.0407 14.4781L10.6138 16.9682C10.2805 17.1557 9.86866 16.9149 9.86866 16.5325L9.86866 11.5522C9.86866 11.1698 10.2805 10.9289 10.6138 11.1164L15.0407 13.6065Z" fill="currentColor"/>
</svg>
