<svg width="20" height="20" viewBox="0 0 20 20" fill="none" xmlns="http://www.w3.org/2000/svg">
<path fill-rule="evenodd" clip-rule="evenodd" d="M3.78929 2C3.35833 2 2.9434 2.15547 2.61949 2.43535C2.55826 2.47826 2.50247 2.53111 2.45458 2.5936C2.44839 2.60167 2.44239 2.60983 2.43659 2.61806C2.15593 2.94218 2 3.3577 2 3.78929V11.4107C2 11.8853 2.18851 12.3404 2.52407 12.6759C2.85962 13.0115 3.31474 13.2 3.78929 13.2H5.80896C6.22318 13.2 6.55896 12.8642 6.55896 12.45C6.55896 12.0358 6.22318 11.7 5.80896 11.7H3.78929C3.71256 11.7 3.63898 11.6695 3.58473 11.6153C3.53048 11.561 3.5 11.4874 3.5 11.4107V4.33983L9.11713 8.64511C9.38708 8.85201 9.76247 8.85136 10.0317 8.64351L16.5082 3.64351L16.5098 3.64222C16.5359 3.6864 16.55 3.73711 16.55 3.78929V7.5498C16.55 7.96402 16.8858 8.2998 17.3 8.2998C17.7142 8.2998 18.05 7.96402 18.05 7.5498V3.78929C18.05 3.31474 17.8615 2.85962 17.5259 2.52407C17.1904 2.18851 16.7353 2 16.2607 2H3.78929ZM4.87006 3.5H14.2395L9.57172 7.10362L4.87006 3.5Z" fill="#676879"/>
<path fill-rule="evenodd" clip-rule="evenodd" d="M12.9492 8.5H12.9561C13.7878 8.50746 14.6033 8.73043 15.3232 9.14709C16.0416 9.5629 16.6402 10.1575 17.0608 10.873C18.1138 12.6175 17.6799 14.237 16.8004 15.0906C16.3979 15.4812 15.7835 15.8081 15.1453 15.6604C14.9144 15.6069 14.7064 15.4943 14.5366 15.331C14.3576 15.4675 14.1608 15.5812 13.9506 15.6682C13.4724 15.8663 12.9462 15.9181 12.4385 15.8172C11.9309 15.7162 11.4646 15.4669 11.0986 15.1009C10.7326 14.7349 10.4833 14.2686 10.3823 13.7609C10.2813 13.2533 10.3332 12.7271 10.5312 12.2489C10.7293 11.7707 11.0648 11.3619 11.4951 11.0744C11.9254 10.7868 12.4316 10.6333 12.9491 10.6333C13.2928 10.6332 13.6331 10.7008 13.9506 10.8323C14.2682 10.9638 14.5568 11.1566 14.7998 11.3996C15.0429 11.6427 15.2357 11.9313 15.3672 12.2489C15.4958 12.5595 15.5633 12.8919 15.5661 13.228C15.5662 13.2332 15.5663 13.2384 15.5664 13.2436C15.5664 13.2457 15.5664 13.2479 15.5664 13.25V14.05C15.5664 14.0913 15.5683 14.1259 15.5712 14.1547C15.6189 14.1291 15.6814 14.0863 15.7557 14.0142C16.1165 13.664 16.4826 12.8151 15.7747 11.645L15.7695 11.6362C15.4799 11.1424 15.0672 10.7321 14.5718 10.4453C14.0773 10.1591 13.5173 10.0057 12.946 10C12.4664 10.0006 11.9928 10.1073 11.5592 10.3126C11.1247 10.5183 10.7411 10.818 10.4364 11.1898C10.1316 11.5617 9.91308 11.9966 9.79666 12.4631C9.68024 12.9296 9.66878 13.4161 9.76311 13.8876C9.85745 14.3591 10.0552 14.8038 10.3422 15.1896C10.6291 15.5754 10.9981 15.8927 11.4225 16.1187C11.8469 16.3447 12.3162 16.4737 12.7965 16.4964C13.2768 16.5191 13.7561 16.4349 14.2 16.25C14.5823 16.0907 15.0214 16.2715 15.1807 16.6538C15.34 17.0362 15.1592 17.4753 14.7769 17.6346C14.1282 17.9049 13.4276 18.0279 12.7257 17.9947C12.0237 17.9615 11.3378 17.773 10.7176 17.4427C10.0973 17.1124 9.55797 16.6487 9.13858 16.0848C8.71919 15.5209 8.43014 14.871 8.29226 14.1819C8.15439 13.4928 8.17114 12.7817 8.34129 12.0999C8.51144 11.4181 8.83076 10.7825 9.27623 10.239C9.7217 9.69547 10.2822 9.25757 10.9174 8.95686C11.5525 8.65614 12.2465 8.50011 12.9492 8.5ZM13.3768 12.2182C13.2413 12.1621 13.096 12.1333 12.9494 12.1333C12.7284 12.1333 12.5122 12.1988 12.3285 12.3216C12.1448 12.4443 12.0016 12.6188 11.9171 12.8229C11.8325 13.027 11.8104 13.2516 11.8535 13.4683C11.8966 13.685 12.003 13.884 12.1592 14.0403C12.3154 14.1965 12.5145 14.3029 12.7312 14.346C12.9479 14.3891 13.1725 14.367 13.3766 14.2824C13.5807 14.1979 13.7552 14.0547 13.8779 13.871C14.0007 13.6873 14.0662 13.4713 14.0662 13.2504C14.0662 13.1037 14.0374 12.9582 13.9813 12.8227C13.9252 12.6872 13.8429 12.564 13.7392 12.4603C13.6355 12.3566 13.5123 12.2743 13.3768 12.2182Z" fill="#676879"/>
</svg>
