<svg width="20" height="20" viewBox="0 0 20 20" fill="none" xmlns="http://www.w3.org/2000/svg">
<path fill-rule="evenodd" clip-rule="evenodd" d="M4.95396 13.8824C6.03019 13.3588 7.20561 13.0873 8.39578 13.0873C9.58595 13.0873 10.7614 13.3588 11.8376 13.8824C12.9138 14.4059 13.8642 15.1686 14.6203 16.1155L14.6292 16.1266L15.1044 16.7449C15.362 17.08 15.3073 17.567 14.9822 17.8325C14.6572 18.0981 14.1849 18.0417 13.9273 17.7066L13.4565 17.0942C12.842 16.3263 12.0704 15.7077 11.1967 15.2827C10.3209 14.8567 9.36437 14.6357 8.39578 14.6357C7.4272 14.6357 6.47065 14.8567 5.59489 15.2827C4.71912 15.7087 3.94589 16.3292 3.33073 17.0996C3.06712 17.4297 2.59387 17.477 2.27368 17.2052C1.95349 16.9335 1.90761 16.4456 2.17121 16.1155C2.92738 15.1686 3.87773 14.4059 4.95396 13.8824Z" fill="#676879"/>
<path fill-rule="evenodd" clip-rule="evenodd" d="M13.1869 6.04486C13.3702 6.42838 13.2173 6.89252 12.8453 7.08156C12.091 7.46483 11.4215 8.36541 10.9268 9.66199C10.4403 10.9371 10.1691 12.4788 10.1311 13.9539C10.1201 14.3813 9.77508 14.7186 9.36049 14.7072C8.9459 14.6959 8.61873 14.3402 8.62975 13.9128C8.67161 12.2888 8.96841 10.5648 9.52912 9.0952C10.0816 7.64716 10.9386 6.32419 12.1813 5.69272C12.5533 5.50368 13.0035 5.66135 13.1869 6.04486Z" fill="#676879"/>
<path fill-rule="evenodd" clip-rule="evenodd" d="M10.0727 4.03545C9.49492 3.59987 8.81804 3.4555 8.1741 3.60644C7.76968 3.70123 7.3673 3.44009 7.27535 3.02316C7.1834 2.60622 7.4367 2.19139 7.84112 2.09659C8.92798 1.84183 10.0467 2.09764 10.9592 2.78561C11.8668 3.46986 12.4953 4.52199 12.7463 5.70568C12.8349 6.12339 12.5782 6.53603 12.173 6.62734C11.7679 6.71865 11.3676 6.45405 11.279 6.03634C11.0983 5.18397 10.6554 4.47477 10.0727 4.03545Z" fill="#676879"/>
<path fill-rule="evenodd" clip-rule="evenodd" d="M11.939 5.33325C12.8204 4.68202 13.9022 4.38474 14.9813 4.4971C16.0604 4.60946 17.0626 5.12376 17.7998 5.9436C18.0817 6.25718 18.0637 6.74702 17.7596 7.03768C17.4554 7.32835 16.9803 7.30979 16.6983 6.99621C16.21 6.45306 15.5457 6.11213 14.8304 6.03764C14.115 5.96315 13.3979 6.16026 12.8138 6.59181C12.4767 6.84087 12.0076 6.76104 11.766 6.4135C11.5244 6.06596 11.6019 5.58231 11.939 5.33325Z" fill="#676879"/>
<path fill-rule="evenodd" clip-rule="evenodd" d="M12.0763 6.67364C11.3836 6.366 10.6084 6.31667 9.88414 6.53416C9.15991 6.75165 8.53207 7.22231 8.10858 7.86496C7.87551 8.21863 7.40847 8.31056 7.06542 8.07028C6.72236 7.83 6.6332 7.3485 6.86626 6.99483C7.48612 6.05421 8.4048 5.36568 9.46411 5.04757C10.5034 4.73546 11.6144 4.79901 12.613 5.22652C13.6317 5.50017 14.5122 6.16325 15.0745 7.08244C15.6479 8.02005 15.8452 9.15065 15.6245 10.2354C15.5394 10.6539 15.1413 10.922 14.7354 10.8342C14.3295 10.7464 14.0695 10.336 14.1546 9.91756C14.2952 9.22638 14.1696 8.50593 13.804 7.90831C13.4385 7.31067 12.8616 6.88258 12.1951 6.71468C12.1545 6.70444 12.1147 6.69071 12.0763 6.67364Z" fill="#676879"/>
</svg>
