<svg width="20" height="20" viewBox="0 0 20 20" fill="none" xmlns="http://www.w3.org/2000/svg">
<path fill-rule="evenodd" clip-rule="evenodd" d="M9.44764 16.0003C9.90548 16.0003 10.3446 15.818 10.6683 15.4935C10.992 15.1689 11.1739 14.7288 11.1739 14.2698L11.174 8.00927H14.2738C14.7316 8.00927 15.1707 7.82695 15.4945 7.50241C15.8182 7.17786 16.0001 6.73769 16.0001 6.27872V0.763162C16.0001 0.341807 15.6593 0.000230184 15.239 0.000230148L10.4129 0.000229726C10.4085 0.000229725 10.4042 0.000265964 10.3998 0.000340351L5.6101 0.000339932C5.60249 0.000114864 5.59485 4.22584e-07 5.58718 4.21914e-07L0.761045 0C0.340732 -3.67449e-08 7.41769e-07 0.341577 7.04933e-07 0.762932L0 9.82643C-4.01246e-08 10.2854 0.181876 10.7256 0.505614 11.0501C0.829352 11.3747 1.26844 11.557 1.72627 11.557H4.82576L4.82569 14.2698C4.82569 14.7288 5.00757 15.1689 5.33131 15.4935C5.65504 15.818 6.09413 16.0003 6.55196 16.0003H9.44764ZM4.82591 1.52586L4.82578 10.0311H1.72627C1.67212 10.0311 1.62018 10.0096 1.58189 9.97117C1.5436 9.93278 1.52209 9.88072 1.52209 9.82643L1.52209 1.52586L4.82591 1.52586ZM6.34786 9.8175L6.34778 14.2698C6.34778 14.3241 6.36929 14.3761 6.40758 14.4145C6.44587 14.4529 6.49781 14.4745 6.55196 14.4745H9.44764C9.50179 14.4745 9.55373 14.4529 9.59202 14.4145C9.63031 14.3761 9.65182 14.3241 9.65182 14.2698L9.65197 7.26015C9.65189 7.25556 9.65185 7.25095 9.65185 7.24634V1.5262L6.34822 1.5262L6.34822 9.79405C6.34822 9.80188 6.3481 9.8097 6.34786 9.8175ZM11.1741 6.48341L11.1741 1.52609L14.478 1.52609V6.27872C14.478 6.33301 14.4565 6.38507 14.4182 6.42346C14.3799 6.46184 14.328 6.48341 14.2738 6.48341H11.1741Z" fill="currentColor"/>
</svg>
