<svg width="18" height="18" viewBox="0 0 18 18" fill="none" xmlns="http://www.w3.org/2000/svg">
<path d="M13.206 10.2282C13.2088 9.47818 13.0111 8.7411 12.6332 8.09327C12.2554 7.44544 11.7112 6.91043 11.057 6.54365C10.4028 6.17688 9.66248 5.99168 8.91266 6.00725C8.16285 6.02283 7.43084 6.2386 6.79246 6.63223C6.15409 7.02585 5.63257 7.583 5.28194 8.24596C4.9313 8.90893 4.76431 9.65358 4.79826 10.4028C4.8322 11.152 5.06585 11.8785 5.475 12.507C5.88415 13.1356 6.45392 13.6433 7.12528 13.9776V16.0445C7.12841 16.1667 7.17917 16.2829 7.26673 16.3682C7.35428 16.4535 7.47171 16.5012 7.59395 16.5012H10.406C10.5283 16.5012 10.6457 16.4535 10.7332 16.3682C10.8208 16.2829 10.8715 16.1667 10.8747 16.0445V13.9415C11.5672 13.5968 12.1512 13.0678 12.5625 12.4126C12.9738 11.7575 13.1965 11.0016 13.206 10.2282V10.2282Z" stroke="#676879" stroke-width="1.5" stroke-linecap="round" stroke-linejoin="round" fill="currentColor"/>
<path d="M9 1.5874V3.39" stroke="#676879" stroke-width="1.5" stroke-linecap="round" stroke-linejoin="round" fill="currentColor"/>
<path d="M13.807 3.30566L12.5332 4.59152" stroke="#676879" stroke-width="1.5" stroke-linecap="round" stroke-linejoin="round" fill="currentColor"/>
<path d="M16.5467 7.03101H14.7441" stroke="#676879" stroke-width="1.5" stroke-linecap="round" stroke-linejoin="round" fill="currentColor"/>
<path d="M4.19287 3.30566L5.46671 4.59152" stroke="#676879" stroke-width="1.5" stroke-linecap="round" stroke-linejoin="round" fill="currentColor"/>
<path d="M1.45312 7.03101H3.25572" stroke="#676879" stroke-width="1.5" stroke-linecap="round" stroke-linejoin="round" fill="currentColor"/>
</svg>
