<svg width="17" height="16" viewBox="0 0 17 16" fill="none" xmlns="http://www.w3.org/2000/svg">
<path d="M11.0857 8.96557L13.8484 11.1757V8.96557H14.9535C15.2466 8.96557 15.5277 8.84914 15.7349 8.6419C15.9422 8.43466 16.0586 8.15357 16.0586 7.86049V2.33506C16.0586 2.04198 15.9422 1.7609 15.7349 1.55365C15.5277 1.34641 15.2466 1.22998 14.9535 1.22998H7.21792C6.92483 1.22998 6.64375 1.34641 6.43651 1.55365C6.22926 1.7609 6.11283 2.04198 6.11283 2.33506V4.76629" stroke="#676879" stroke-width="1.5" stroke-linecap="round" stroke-linejoin="round" fill="currentColor"/>
<path d="M11.0859 11.4545C11.0859 11.7476 10.9695 12.0287 10.7622 12.2359C10.555 12.4431 10.2739 12.5596 9.98081 12.5596H6.11302L3.35031 14.7697V12.5596H2.24522C1.95213 12.5596 1.67105 12.4431 1.46381 12.2359C1.25656 12.0287 1.14014 11.7476 1.14014 11.4545V5.92906C1.14014 5.63597 1.25656 5.35489 1.46381 5.14765C1.67105 4.9404 1.95213 4.82397 2.24522 4.82397H9.98081C10.2739 4.82397 10.555 4.9404 10.7622 5.14765C10.9695 5.35489 11.0859 5.63597 11.0859 5.92906V11.4545Z" stroke="#676879" stroke-width="1.5" stroke-linecap="round" stroke-linejoin="round" fill="currentColor"/>
</svg>
