<svg width="15" height="16" viewBox="0 0 15 16" fill="none" xmlns="http://www.w3.org/2000/svg">
<path d="M7.59933 15.0959C7.59933 12.9589 4.34205 12.3413 2.4601 12.1625C2.10354 12.1283 1.77215 11.955 1.53131 11.6767C1.29048 11.3985 1.15771 11.0357 1.15919 10.6597V3.07375C1.15927 2.86301 1.20155 2.65465 1.2833 2.46218C1.36504 2.26972 1.48443 2.09746 1.63369 1.9566C1.78296 1.81573 1.95878 1.70941 2.14972 1.64453C2.34067 1.57965 2.54247 1.55766 2.74203 1.58C4.64832 1.79189 7.59933 2.4486 7.59933 4.48334V15.0959Z" stroke="#676879" stroke-width="1.5" stroke-linecap="round" stroke-linejoin="round" fill="currentColor"/>
<path d="M7.59961 15.0959C7.59961 12.9589 10.8569 12.3413 12.7388 12.1625C13.0954 12.1283 13.4268 11.955 13.6676 11.6768C13.9085 11.3985 14.0412 11.0357 14.0397 10.6597V3.07375C14.0397 2.86301 13.9974 2.65465 13.9156 2.46218C13.8339 2.26972 13.7145 2.09746 13.5652 1.9566C13.416 1.81573 13.2402 1.70941 13.0492 1.64453C12.8583 1.57965 12.6565 1.55766 12.4569 1.58C10.5506 1.79189 7.59961 2.4486 7.59961 4.48334V15.0959Z" stroke="#676879" stroke-width="1.5" stroke-linecap="round" stroke-linejoin="round" fill="currentColor"/>
</svg>
