<svg width="20" height="20" viewBox="0 0 20 20" fill="none" xmlns="http://www.w3.org/2000/svg">
<path fill-rule="evenodd" clip-rule="evenodd" d="M4 3C2.89543 3 2 3.89543 2 5V13.25C2 14.3546 2.89543 15.25 4 15.25H6.53971C6.60878 14.6015 6.7664 13.9795 7.00024 13.3963L7.00024 4.5H14C14.2761 4.5 14.5 4.72386 14.5 5V9.07089C15.0207 9.14537 15.5229 9.27714 16 9.45963V5C16 3.89543 15.1046 3 14 3H4ZM5.50024 4.5H4C3.72386 4.5 3.5 4.72386 3.5 5V13.25C3.5 13.5261 3.72386 13.75 4 13.75H5.50024L5.50024 4.5Z" fill="currentColor"/>
<path d="M10.7498 9.56095C11.5579 9.21535 12.4442 9.01743 13.3748 9.0011V5.625H10.7498V9.56095Z" fill="currentColor"/>
<path d="M14.5 13.6C14.5 14.2904 13.9404 14.85 13.25 14.85C12.5596 14.85 12 14.2904 12 13.6C12 12.9096 12.5596 12.35 13.25 12.35C13.9404 12.35 14.5 12.9096 14.5 13.6Z" fill="currentColor"/>
<path fill-rule="evenodd" clip-rule="evenodd" d="M13.2456 10.1004C14.1472 10.0869 15.008 10.4345 15.7363 10.9006C16.474 11.3728 17.1296 12.0002 17.633 12.6287L17.6461 12.645C17.6893 12.6992 17.773 12.8041 17.8426 12.9217C17.9178 13.0489 18.0242 13.2665 18.0242 13.5415C18.0242 13.8164 17.9178 14.0341 17.8426 14.1612C17.773 14.2789 17.6893 14.3837 17.6461 14.4379L17.6333 14.454C17.1412 15.0689 16.4925 15.6965 15.7555 16.1723C15.0277 16.6422 14.1609 16.9974 13.2456 16.9837C12.3303 16.9974 11.4636 16.6422 10.7359 16.1722C9.99911 15.6964 9.35063 15.0688 8.85884 14.4538L8.85704 14.4515C8.74497 14.3102 8.5 13.9775 8.5 13.5415C8.5 13.1054 8.74497 12.7727 8.85704 12.6314L8.85899 12.629C9.36199 12.0003 10.0174 11.3729 10.755 10.9007C11.4833 10.4345 12.344 10.0869 13.2456 10.1004ZM10.05 13.5415C10.4562 14.0445 10.9804 14.5445 11.5497 14.9122C12.1334 15.2892 12.7117 15.4937 13.2313 15.4838C13.2408 15.4836 13.2504 15.4836 13.2599 15.4838C13.7795 15.4937 14.3579 15.2891 14.9419 14.9121C15.5113 14.5445 16.0357 14.0445 16.4422 13.5415C16.0269 13.0281 15.4974 12.5286 14.9277 12.1641C14.3433 11.79 13.7691 11.5906 13.26 11.6003C13.2504 11.6005 13.2408 11.6005 13.2313 11.6003C12.7221 11.5906 12.148 11.79 11.5637 12.164C10.9941 12.5287 10.4648 13.0281 10.05 13.5415Z" fill="currentColor"/>
</svg>
