<svg width="20" height="20" viewBox="0 0 20 20" fill="none" xmlns="http://www.w3.org/2000/svg">
<g clip-path="url(#clip0_4460_49872)">
<path d="M7.30924 3.90723L6.79931 4.0249L2.70684 4.90093C2.56698 4.93145 2.43476 4.99 2.31816 5.07305C2.20157 5.15611 2.10302 5.26194 2.02847 5.38415C1.95393 5.50636 1.90493 5.64241 1.88444 5.78409C1.86395 5.92576 1.8724 6.07012 1.90926 6.20844C1.90926 6.20844 2.37996 8.39198 2.92911 10.8501" stroke="#676879" stroke-width="1.3075" stroke-linecap="round" stroke-linejoin="round"/>
<path d="M12.8662 2.08954L17.1156 3.89391L18.227 4.35153C18.4895 4.48176 18.6932 4.70625 18.7974 4.98016C18.9018 5.25405 18.8988 5.5572 18.7892 5.82902L13.8207 17.5182C13.6997 17.7996 13.4726 18.022 13.1886 18.137C12.9047 18.2521 12.5868 18.2505 12.304 18.1327L6.99557 15.8707C6.7141 15.7497 6.49172 15.5225 6.37666 15.2385C6.26162 14.9547 6.2632 14.6368 6.38104 14.354L6.95634 13.0465L11.3495 2.70407C11.4705 2.4226 11.6977 2.20022 11.9816 2.08516C12.2656 1.97011 12.5834 1.97169 12.8662 2.08954Z" stroke="#676879" stroke-width="1.3075" stroke-linecap="round" stroke-linejoin="round"/>
</g>
<defs>
<clipPath id="clip0_4460_49872">
<rect width="20" height="20" fill="currentColor"/>
</clipPath>
</defs>
</svg>
