<svg width="20" height="20" viewBox="0 0 20 20" fill="none" xmlns="http://www.w3.org/2000/svg">
<path d="M12.9142 10.5857V10.5857C11.7426 9.41417 9.84315 9.41417 8.67158 10.5857L4.42894 14.8284C3.25736 16 3.25736 17.8995 4.42894 19.071V19.071C5.60051 20.2426 7.50001 20.2426 8.67158 19.071L10.0858 17.6568" stroke="#323338" stroke-width="1.5" stroke-linecap="round" stroke-linejoin="round"/>
<path d="M10.4281 12.5644V12.5644C10.9405 14.14 12.6333 15.0019 14.2089 14.4894L19.9147 12.6337C21.4903 12.1212 22.3522 10.4285 21.8397 8.85291V8.85291C21.3273 7.27729 19.6346 6.41542 18.0589 6.92787L16.157 7.54645" stroke="#323338" stroke-width="1.5" stroke-linecap="round" stroke-linejoin="round"/>
<path d="M11.7676 7.02393L9.5 5.52356" stroke="#323338" stroke-width="1.5" stroke-linecap="round" stroke-linejoin="round"/>
<path d="M13.7925 5.87061L13.1322 2.00003" stroke="#323338" stroke-width="1.5" stroke-linecap="round" stroke-linejoin="round"/>
</svg>
