<svg width="20" height="20" viewBox="0 0 20 20" fill="none" xmlns="http://www.w3.org/2000/svg">
<path fill-rule="evenodd" clip-rule="evenodd" d="M14.8716 6.74899C15.0097 6.74899 15.1216 6.86091 15.1216 6.99898V11.9989C15.1216 12.4131 15.4574 12.7488 15.8716 12.7488C16.2858 12.7488 16.6216 12.4131 16.6216 11.9989V6.99898C16.6216 6.03251 15.8381 5.24902 14.8716 5.24902H14.1216C13.7074 5.24902 13.3717 5.5848 13.3717 5.99901C13.3717 6.41321 13.7074 6.74899 14.1216 6.74899H14.8716Z" fill="#676879"/>
<path fill-rule="evenodd" clip-rule="evenodd" d="M13.8693 13.5009V15.5009H17.8693V13.5009H13.8693ZM13.3694 12.001C12.8171 12.001 12.3694 12.4487 12.3694 13.001V16.0009C12.3694 16.5532 12.8171 17.0009 13.3694 17.0009H18.3692C18.9215 17.0009 19.3692 16.5532 19.3692 16.0009V13.001C19.3692 12.4487 18.9215 12.001 18.3692 12.001H13.3694Z" fill="#676879"/>
<path fill-rule="evenodd" clip-rule="evenodd" d="M8.86935 4.49996V6.49992H12.8693V4.49996H8.86935ZM8.36936 3C7.81709 3 7.36938 3.4477 7.36938 3.99998V6.9999C7.36938 7.55217 7.81709 7.99988 8.36936 7.99988H13.3692C13.9215 7.99988 14.3692 7.55217 14.3692 6.9999V3.99998C14.3692 3.4477 13.9215 3 13.3692 3H8.36936Z" fill="#676879"/>
<path fill-rule="evenodd" clip-rule="evenodd" d="M6.86715 6.74801C6.72908 6.74801 6.61715 6.85994 6.61715 6.998V11.9979C6.61715 12.4121 6.28137 12.7479 5.86717 12.7479C5.45297 12.7479 5.11719 12.4121 5.11719 11.9979V6.998C5.11719 6.03153 5.90067 5.24805 6.86715 5.24805H7.61713C8.03133 5.24805 8.36711 5.58383 8.36711 5.99803C8.36711 6.41223 8.03133 6.74801 7.61713 6.74801H6.86715Z" fill="#676879"/>
<path fill-rule="evenodd" clip-rule="evenodd" d="M7.86942 13.499V15.4989H3.86952V13.499H7.86942ZM8.36941 11.999C8.92168 11.999 9.36938 12.4467 9.36938 12.999V15.9989C9.36938 16.5512 8.92168 16.9989 8.36941 16.9989H3.36953C2.81726 16.9989 2.36955 16.5512 2.36955 15.9989V12.999C2.36955 12.4467 2.81726 11.999 3.36953 11.999H8.36941Z" fill="#676879"/>
</svg>
